# xmcd CD database file
#
# Track frame offsets:
#	150
#	11057
#	22622
#	34197
#	43162
#	57442
#	68542
#	95222
#	104707
#	114375
#	125442
#	137387
#	150005
#	161177
#	174647
#	186515
#	201960
#	219640
#	228832
#	239072
#
# Disc length: 3259 seconds
#
# Revision: 2
# Processed by: cddbd v1.5.2PL0 Copyright (c) Steve Scherf et al.
# Submitted via: CDex 1.51
#
DISCID=190cb914
DTITLE=Johnny Winter - The Johnny Winter Story Vol. 2 - Eternally
DYEAR=1900
DGENRE=Blues
TTITLE0=Raining Teardrops In My Heart
TTITLE1=Eternally
TTITLE2=Bad News
TTITLE3=Crazie Baby
TTITLE4=Pneumonia Blues
TTITLE5=Suicide Won't Satisfy
TTITLE6=Going Down Slow
TTITLE7=Blue Suede Shoes
TTITLE8=Ice Cube
TTITLE9=Ballard Of Bertha Glutz
TTITLE10=Coming Up Fast
TTITLE11=Easy Loving Girl
TTITLE12=Living In The Blues
TTITLE13=Birds Can't Row Boats
TTITLE14=Avocado Green
TTITLE15=Pneumonia Blues (Studio Live Version)
TTITLE16=Kind Heated Woman (Studio Live Version)
TTITLE17=Rockin' Pneumonia
TTITLE18=Broke and Lonely
TTITLE19=Don't Drink Whiskey
EXTD=
EXTT0=
EXTT1=
EXTT2=
EXTT3=
EXTT4=
EXTT5=
EXTT6=
EXTT7=
EXTT8=
EXTT9=
EXTT10=
EXTT11=
EXTT12=
EXTT13=
EXTT14=
EXTT15=
EXTT16=
EXTT17=
EXTT18=
EXTT19=
PLAYORDER=
